         <svg width="183" height="108" viewBox="0 0 183 108" fill="none" xmlns="http://www.w3.org/2000/svg">
                <path d="M160.389 60.3572C158.373 65.578 156.535 69.1064 156.535 69.1064C156.535 69.1064 159.37 70.2443 161.783 67.4472C163.905 64.9811 173.77 47.0314 175.671 43.7391C172.779 48.0559 165.421 42.311 165.421 42.311C164.492 48.7584 162.32 55.286 160.389 60.3572Z" fill="#EF0000"/>
                <path opacity="0.2" d="M160.389 60.3572C158.373 65.578 156.535 69.1064 156.535 69.1064C156.535 69.1064 159.37 70.2443 161.783 67.4472C163.905 64.9811 173.77 47.0314 175.671 43.7391C172.779 48.0559 165.421 42.311 165.421 42.311C164.492 48.7584 162.32 55.286 160.389 60.3572Z" fill="url(#paint0_secondImg)"/>
                <path d="M102.302 53.6575C102.431 56.0265 100.781 58.3661 97.2799 59.9366C93.4567 61.72 91.0838 65.1388 91.0081 67.6891C90.863 71.3965 95.2893 73.7525 106.672 68.5519C125.938 59.7213 146.083 43.3178 160.358 60.2389C162.32 55.2858 164.492 48.7582 165.271 42.2244C165.271 42.2244 172.63 47.9692 175.521 43.6525C175.607 43.5028 175.694 43.3532 175.694 43.3532L175.78 43.2035C178.419 37.9426 166.454 24.4504 151.275 27.7586C136.128 31.1848 112.407 46.5222 102.132 36.4991C102.027 40.8282 102.175 46.1015 102.302 53.6575Z" fill="#B70000"/>
                <path d="M102.302 53.6575C102.431 56.0265 100.781 58.3661 97.2799 59.9366C93.4567 61.72 91.0838 65.1388 91.0081 67.6891C90.863 71.3965 95.2893 73.7525 106.672 68.5519C125.938 59.7213 146.083 43.3178 160.358 60.2389C162.32 55.2858 164.492 48.7582 165.271 42.2244C165.271 42.2244 172.63 47.9692 175.521 43.6525C175.607 43.5028 175.694 43.3532 175.694 43.3532L175.78 43.2035C178.419 37.9426 166.454 24.4504 151.275 27.7586C136.128 31.1848 112.407 46.5222 102.132 36.4991C102.027 40.8282 102.175 46.1015 102.302 53.6575Z" fill="url(#paint1_secondImg)"/>
                <path d="M102.761 29.8785C103.503 24.6199 81.0327 19.1293 61.8707 28.8177C45.3516 37.039 23.2395 54.6019 7.0892 61.8388C8.79756 75.2961 10.9187 85.1007 10.9187 85.1007C17.7874 82.8808 22.8873 75.9482 31.2457 68.9016C50.1563 53.082 71.82 42.3438 87.3283 44.5133C88.9027 44.724 90.2411 44.9978 91.5795 45.2717C98.4843 46.9636 102.038 50.3123 102.27 53.5391C102.143 45.9832 102.027 40.8279 102.1 36.3807C102.239 34.0665 102.441 31.9883 102.761 29.8785Z" fill="#EF0000"/>
                <path d="M102.761 29.8785C103.503 24.6199 81.0327 19.1293 61.8707 28.8177C45.3516 37.039 23.2395 54.6019 7.0892 61.8388C8.79756 75.2961 10.9187 85.1007 10.9187 85.1007C17.7874 82.8808 22.8873 75.9482 31.2457 68.9016C50.1563 53.082 71.82 42.3438 87.3283 44.5133C88.9027 44.724 90.2411 44.9978 91.5795 45.2717C98.4843 46.9636 102.038 50.3123 102.27 53.5391C102.143 45.9832 102.027 40.8279 102.1 36.3807C102.239 34.0665 102.441 31.9883 102.761 29.8785Z" fill="url(#paint2_secondImg)"/>
                <path d="M97.2797 59.9366C100.749 58.2481 102.399 55.9084 102.302 53.6575C102.07 50.4307 98.4294 47.2316 91.611 45.39C92.383 52.5202 90.9758 60.4872 91.008 67.6891C91.0837 65.1388 93.4566 61.72 97.2797 59.9366Z" fill="#8F0000"/>
                <path opacity="0.2" d="M97.2797 59.9366C100.749 58.2481 102.399 55.9084 102.302 53.6575C102.07 50.4307 98.4294 47.2316 91.611 45.39C92.383 52.5202 90.9758 60.4872 91.008 67.6891C91.0837 65.1388 93.4566 61.72 97.2797 59.9366Z" fill="url(#paint3_secondImg)"/>
                <path d="M160.389 60.3573C157.938 57.3457 154.542 54.587 150.196 53.4746C145.85 52.3621 141.175 52.8557 136.958 54.1122C132.741 55.3687 128.681 57.2154 124.772 59.1485C120.862 61.0815 117.102 63.101 113.224 65.1521C111.345 66.1618 109.315 67.0851 107.403 67.9768C105.492 68.8685 103.462 69.7918 101.338 70.3611C99.2449 71.0484 97.0888 71.4996 94.8926 71.3291C93.8535 71.228 92.7512 70.8908 92.0893 70.3092C91.3958 69.6095 91.0564 68.815 91.0711 67.9255C91.1005 66.1467 92.1373 64.3508 93.387 62.8775C94.0867 62.184 94.9044 61.4589 95.7853 60.9698C96.6347 60.3628 97.6653 59.9601 98.6643 59.4394C100.513 58.3117 102.085 56.6254 102.468 54.7517C102.82 52.7599 101.81 50.88 100.305 49.5122C98.8003 48.1445 96.8548 47.0213 94.8862 46.2838C92.768 45.4599 90.6265 45.0217 88.4851 44.5834C84.0843 43.7387 79.3779 44.1142 75.0657 45.0167C70.6355 45.9507 66.4498 47.3253 62.477 49.0223C58.5042 50.7193 54.6263 52.7704 50.8981 54.9079C43.4732 59.3009 36.7101 64.2755 30.4277 69.6274C27.2432 72.3782 24.4761 75.2701 21.4413 78.1073C19.924 79.5258 18.4066 80.9444 16.7079 82.1586C15.0092 83.3727 13.1609 84.5005 11.0681 85.1878C13.1609 84.5005 15.0092 83.3727 16.7079 82.1586C18.4066 80.9444 19.924 79.5258 21.473 78.2253C24.5078 75.3881 27.4245 72.5826 30.6089 69.8318C36.8914 64.4799 43.7725 59.4737 51.111 55.2303C54.8392 53.0928 58.5991 51.0734 62.7216 49.4628C66.6943 47.7658 70.88 46.3912 75.3102 45.4571C79.6224 44.5547 84.2424 44.3288 88.4936 45.0872C90.6034 45.4074 92.7764 45.9636 94.745 46.7011C96.7137 47.4386 98.6275 48.4438 100.014 49.8432C101.401 51.2425 102.348 52.8864 102.082 54.7285C101.817 56.5707 100.331 58.1073 98.5694 59.0854C97.7201 59.6924 96.6578 59.9771 95.6905 60.6158C94.8411 61.2228 93.9918 61.8299 93.2057 62.6731C91.838 64.178 90.8012 65.9739 90.717 68.0204C90.734 69.0279 90.987 69.9721 91.8301 70.7581C92.6732 71.5442 93.7756 71.8814 94.9327 71.9508C97.2469 72.0897 99.521 71.6069 101.614 70.9196C103.707 70.2323 105.768 69.427 107.766 68.3857C109.795 67.4623 111.675 66.4526 113.555 65.4429C117.433 63.3918 121.193 61.3723 124.985 59.4709C128.894 57.5379 132.835 55.7228 137.053 54.4663C141.27 53.2098 145.913 52.5981 150.141 53.7422C154.424 54.6187 157.938 57.3457 160.389 60.3573Z" fill="#FF5252"/>
                <path d="M102.25 36.4675C103.456 37.6625 104.952 38.5265 106.621 39.0912C108.291 39.6559 110.251 39.8897 112.148 39.8874C115.91 39.7648 119.482 38.9341 123.023 37.9854C130.041 35.8518 136.72 32.9237 143.526 30.4677C145.265 29.8753 147.003 29.2829 148.774 28.8085C150.544 28.3342 152.315 27.8598 154.148 27.6215C157.847 27.2628 161.531 27.7937 164.697 29.2224C167.981 30.6195 170.77 32.5288 172.945 34.9819C174.033 36.2084 174.884 37.4983 175.531 38.9694C176.147 40.3224 176.472 42.0064 175.694 43.3533L175.262 44.1015L175.576 43.3849L175.403 43.6842C174.971 44.4324 174.24 45.0079 173.264 45.1429C172.288 45.2778 171.367 45.1451 170.414 44.8944C168.627 44.3613 166.949 43.2929 165.539 42.2792L165.24 42.1064L165.217 42.4921C164.671 47.0658 163.472 51.5615 161.919 56.1521C160.453 60.5931 158.719 64.9793 156.599 69.3423C158.868 65.0657 160.603 60.6795 162.187 56.2069C163.772 51.7343 164.939 47.1206 165.602 42.5153L165.248 42.6102C166.808 43.7102 168.336 44.6923 170.273 45.3117C171.226 45.5625 172.297 45.7816 173.391 45.615C174.484 45.4484 175.302 44.7233 175.852 43.9434L176.025 43.6441C176.857 42.0295 176.446 40.4952 175.917 38.9925C175.27 37.5214 174.387 36.1136 173.299 34.887C171.124 32.4339 168.272 30.2885 164.87 28.9231C161.586 27.526 157.752 26.9088 153.935 27.299C152.102 27.5373 150.182 27.9253 148.443 28.5177C146.672 28.9921 144.934 29.5845 143.227 30.2949C136.421 32.7509 129.774 35.797 122.756 37.9306C119.246 38.9974 115.674 39.8281 111.912 39.9507C110.015 39.9529 108.204 39.8055 106.535 39.2408C104.952 38.5265 103.424 37.5444 102.25 36.4675Z" fill="#FF5252"/>
                <defs>
                <linearGradient id="paint0_secondImg" x1="158.113" y1="54.4711" x2="169.37" y2="57.2124" gradientUnits="userSpaceOnUse">
                <stop stop-color="#FF6363"/>
                <stop offset="1"/>
                </linearGradient>
                <linearGradient id="paint1_secondImg" x1="89.9414" y1="51.7342" x2="176.543" y2="46.1831" gradientUnits="userSpaceOnUse">
                <stop stop-color="#8F0000"/>
                <stop offset="0.2363" stop-color="#BA1C1C"/>
                <stop offset="0.4011" stop-color="#E04747"/>
                <stop offset="0.7033" stop-color="#EF5555"/>
                <stop offset="1" stop-color="#E04848"/>
                </linearGradient>
                <linearGradient id="paint2_secondImg" x1="6.78016" y1="56.8643" x2="104.125" y2="50.6246" gradientUnits="userSpaceOnUse">
                <stop stop-color="#A10000"/>
                <stop offset="1" stop-color="#E34C4C"/>
                </linearGradient>
                <linearGradient id="paint3_secondImg" x1="90.2665" y1="56.6238" x2="102.447" y2="55.8431" gradientUnits="userSpaceOnUse">
                <stop stop-color="#960F0F"/>
                <stop offset="0.4945" stop-color="#2A0404"/>
                <stop offset="0.7747" stop-color="#0C0101"/>
                <stop offset="1"/>
                </linearGradient>
                </defs>
            </svg>
